<?xml version="1.0" encoding="UTF-8" standalone="no"?>
<!DOCTYPE svg PUBLIC "-//W3C//DTD SVG 1.1//EN" "http://www.w3.org/Graphics/SVG/1.1/DTD/svg11.dtd">
<svg width="100%" height="100%" viewBox="0 0 168 45" version="1.1" xmlns="http://www.w3.org/2000/svg" xmlns:xlink="http://www.w3.org/1999/xlink" xml:space="preserve" xmlns:serif="http://www.serif.com/" style="fill-rule:evenodd;clip-rule:evenodd;stroke-linejoin:round;stroke-miterlimit:2;">
    <g transform="matrix(1,0,0,1,-22,0)">
        <g transform="matrix(0.885061,0,0,0.885061,11.0879,2.58638)">
            <g>
                <g transform="matrix(0.792653,0,0,0.792653,20.7347,4.66511)">
                    <path d="M64.533,30.695L64.533,27.104C65.206,27.574 65.705,27.871 66.145,28.092C66.58,28.308 67.023,28.4 67.461,28.4C69.008,28.4 69.831,27.565 69.831,26.002L69.831,13.767L73.919,13.767L73.919,26.178C73.919,28.112 73.397,29.505 72.354,30.354C71.312,31.204 70.025,31.628 68.495,31.628C67.183,31.628 65.861,31.317 64.533,30.695M76.38,22.519C76.38,16.254 79.224,13.41 83.979,13.41C89.238,13.41 91.704,16.404 91.704,22.519C91.704,29.062 88.811,31.628 84.08,31.628C79.073,31.628 76.38,28.76 76.38,22.519M87.455,22.519C87.455,18.398 86.348,16.699 83.978,16.699C81.738,16.699 80.604,18.475 80.604,22.519C80.604,26.564 81.866,28.339 84.133,28.339C86.348,28.339 87.455,26.666 87.455,22.519M94.174,13.76L98.226,13.76L98.226,20.851L103.66,20.851L103.66,13.76L107.737,13.76L107.737,31.279L103.66,31.279L103.66,24.318L98.226,24.318L98.226,31.279L94.174,31.279L94.174,13.76ZM124.697,31.278L119.286,13.76L114.984,13.76L109.416,31.278L113.133,31.278L114.112,27.888L119.653,27.888L120.646,31.278L124.697,31.278ZM118.736,24.761L115.015,24.761L116.861,18.363L118.736,24.761ZM156.641,13.76L156.641,31.279L153.298,31.279L147.156,20.615L147.156,31.279L143.103,31.279L143.103,13.76L146.867,13.76L152.59,24.187L152.59,13.76L156.641,13.76ZM139.913,13.76L139.913,31.279L136.573,31.279L130.429,20.615L130.429,31.279L126.376,31.279L126.376,13.76L130.14,13.76L135.862,24.187L135.862,13.76L139.913,13.76ZM159.836,13.76L163.885,13.76L163.885,31.279L159.836,31.279L159.836,13.76ZM170.499,16.835L165.9,16.835L165.9,13.76L179.254,13.76L179.254,16.835L174.576,16.835L174.576,31.278L170.499,31.278L170.499,16.835ZM204.393,24.307C205.472,23.958 206.37,23.392 206.997,22.423C207.627,21.452 207.903,20.439 207.903,19.302C207.903,17.466 207.35,16.084 206.25,15.157C205.146,14.23 203.592,13.76 201.582,13.76L194.563,13.76L194.563,31.278L198.589,31.278L198.589,24.836L200.367,24.836L203.688,31.279L208.533,31.279L204.393,24.307ZM201.341,21.661L198.589,21.661L198.589,16.837L201.524,16.837C202.131,16.837 202.788,16.996 203.204,17.412C203.589,17.795 203.782,18.455 203.782,19.19C203.782,20.771 202.968,21.661 201.341,21.661M181.22,31.279L191.526,31.279L191.526,28.2L185.271,28.2L185.271,24.058L190.502,24.058L190.502,20.953L185.271,20.953L185.271,16.837L191.526,16.837L191.526,13.76L181.22,13.76L181.22,31.279ZM44.98,22.499C44.98,34.914 34.915,44.979 22.5,44.979C10.085,44.979 0.02,34.914 0.02,22.499C0.02,10.084 10.085,0.019 22.5,0.019C34.915,0.019 44.98,10.084 44.98,22.499" style="fill:rgb(235,0,60);fill-rule:nonzero;"/>
                    <path d="M22.5,22.499L4.327,15.428L11.171,22.499L4.327,29.571L22.5,22.499ZM22.5,22.499L40.673,29.571L33.829,22.499L40.673,15.428L22.5,22.499ZM22.5,22.499L15.429,40.673L22.5,33.828L29.571,40.673L22.5,22.499ZM22.5,22.499L29.571,4.326L22.5,11.17L15.429,4.326L22.5,22.499Z" style="fill:white;fill-rule:nonzero;"/>
                </g>
                <g transform="matrix(0.276852,0,0,0.276852,-224.168,-171.4)">
                    <path d="M873.826,698.886L870.034,698.886L870.034,701.883L873.826,701.883L873.826,698.886ZM1024.09,701.883L1027.88,701.883L1027.88,698.886L1024.09,698.886L1024.09,701.883ZM1021.36,742.534L1019.56,741.361L1016.2,746.492L1013.39,744.659L1016.31,740.18L1014.5,738.999L1011.58,743.45L1008.8,741.626L1012.14,736.504L1010.34,735.325L1005.51,742.711L1016.52,749.917L1021.36,742.534ZM1008.44,759.372L1004.61,755.696L1008.22,751.921L1006.66,750.419L1003.04,754.191L1000.48,751.744L1004.64,747.408L1003.1,745.917L997.082,752.198L1006.58,761.309L1008.44,759.372ZM1003,764.393L1001.69,762.642L996.896,766.248L990.305,757.472L988.145,759.099L996.047,769.625L1003,764.393ZM989.82,773.436L983.578,761.85L981.199,763.13L987.443,774.716L989.82,773.436ZM973.345,780.501L971.592,775.365L976.773,773.603L978.521,778.736L981.061,777.871L976.813,765.416L974.273,766.276L976.046,771.471L970.867,773.236L969.1,768.041L966.554,768.909L970.805,781.364L973.345,780.501ZM962.777,777.031L962.52,775.193L956.563,776.03L956.817,777.865L962.777,777.031ZM953.397,784.372L953.42,782.181L947.424,782.119L947.545,771.145L944.842,771.116L944.698,784.276L953.397,784.372ZM939.742,783.808L940.103,781.648L934.185,780.667L935.981,769.848L933.317,769.402L931.158,782.381L939.742,783.808ZM922.957,774.465L923.092,768.799L919.47,773.149L922.957,774.465ZM925.556,767.006L925.432,781.031L922.827,780.044L922.904,776.639L918.08,774.821L915.901,777.437L913.468,776.512L922.844,765.983L925.556,767.006ZM905.019,771.706L907.743,767.153L912.231,769.836L913.344,767.97L908.853,765.286L910.666,762.256L915.831,765.334L916.936,763.491L909.462,759.025L902.716,770.333L905.019,771.706ZM903.283,754.286L897.309,760.686L898.592,749.911L896.83,748.268L887.851,757.889L889.686,759.598L895.764,753.086L894.532,764.122L896.134,765.616L905.115,755.989L903.283,754.286ZM879.405,747.904C878.334,746.325 877.889,744.885 878.075,743.577C878.258,742.263 879.098,741.102 880.601,740.078L887.304,735.517L888.872,737.817L882.23,742.334C881.297,742.974 880.736,743.639 880.555,744.329C880.375,745.031 880.564,745.784 881.119,746.602C881.646,747.368 882.275,747.814 883.005,747.932C883.735,748.045 884.567,747.789 885.506,747.151L892.145,742.638L893.588,744.752L886.881,749.316C885.881,749.993 884.922,750.374 884.006,750.458C883.093,750.54 882.247,750.357 881.48,749.914C880.708,749.466 880.014,748.795 879.405,747.904M1015.73,663.777L1017.39,662.951L1020.07,668.336L1018.42,669.165L1015.73,663.777ZM1009,651.695L1010.75,653.989C1011.17,654.559 1011.64,654.892 1012.14,654.987C1012.64,655.086 1013.18,654.911 1013.78,654.466C1014.3,654.071 1014.61,653.637 1014.7,653.169C1014.79,652.707 1014.63,652.202 1014.23,651.655L1012.34,649.169L1009,651.695ZM1017.33,653.874C1017.26,654.917 1016.69,655.842 1015.61,656.662C1015.12,657.045 1014.55,657.305 1013.95,657.446C1013.33,657.587 1012.73,657.575 1012.13,657.417C1011.68,657.296 1011.27,657.045 1010.88,656.735L1008.76,662.675L1006.72,659.988L1008.8,654.852L1007.35,652.949L1003.57,655.819L1001.94,653.685L1012.42,645.73L1016.13,650.621C1017,651.754 1017.4,652.836 1017.33,653.874M991.165,643.846L999.667,633.799L1006.4,639.497L1005.01,641.14L1000.34,637.188L998.187,639.733L1002.25,643.175L1000.85,644.83L996.772,641.377L994.607,643.934L999.286,647.903L997.894,649.547L991.165,643.846ZM981.566,637.949L986.863,628.294L983.381,626.385L984.416,624.505L993.764,629.621L992.726,631.507L989.211,629.582L983.92,639.237L981.566,637.949ZM971.008,633.486L975.361,621.065L977.901,621.962L973.557,634.386L971.008,633.486ZM962.929,626.814L964.18,618.151L966.661,618.506L964.778,631.533L962.61,631.223L957.322,621.455L956.047,630.273L953.564,629.912L955.447,616.888L957.835,617.232L962.929,626.814ZM944.083,625.683L943.15,616.983L945.642,616.716L947.049,629.802L944.873,630.036L937.326,621.88L938.282,630.746L935.79,631.014L934.38,617.928L936.773,617.669L944.083,625.683ZM925.322,628.497L921.759,624.09L921.807,629.748L925.322,628.497ZM926.684,630.191L921.827,631.922L921.852,635.322L919.397,636.195L919.749,622.103L922.481,621.13L931.451,631.913L928.826,632.844L926.684,630.191ZM906.404,644.103L899.274,633.038L901.527,631.581L904.501,636.193L909.096,633.233L906.124,628.623L908.38,627.169L915.509,638.237L913.254,639.685L910.314,635.127L905.719,638.087L908.662,642.648L906.404,644.103ZM896.647,650.406C897.177,649.845 897.515,649.273 897.656,648.687C897.794,648.1 897.715,647.48 897.399,646.823C897.098,646.164 896.545,645.459 895.759,644.706C894.955,643.942 894.219,643.426 893.56,643.161C892.903,642.894 892.28,642.84 891.702,643.006C891.124,643.175 890.569,643.536 890.033,644.1C889.498,644.658 889.162,645.236 889.027,645.825C888.891,646.417 888.973,647.038 889.269,647.683C889.568,648.334 890.121,649.042 890.921,649.803C891.719,650.564 892.449,651.08 893.114,651.345C893.774,651.619 894.394,651.669 894.972,651.5C895.547,651.331 896.105,650.967 896.647,650.406M898.276,651.96C897.371,652.904 896.418,653.544 895.415,653.882C894.406,654.223 893.368,654.226 892.291,653.896C891.223,653.564 890.129,652.859 889.016,651.802C887.383,650.249 886.532,648.684 886.445,647.102C886.366,645.521 887.014,644.007 888.407,642.547C889.303,641.608 890.256,640.963 891.262,640.624C892.269,640.286 893.309,640.28 894.38,640.613C895.454,640.946 896.545,641.645 897.662,642.705C899.288,644.258 900.145,645.82 900.23,647.404C900.314,648.986 899.66,650.502 898.276,651.96M888.66,664.578C888.364,665.06 888.032,665.48 887.657,665.832C887.296,666.185 886.91,666.484 886.507,666.732L884.37,665.421C884.821,665.226 885.229,665.012 885.593,664.789C885.954,664.575 886.239,664.296 886.456,663.946C886.797,663.385 886.921,662.87 886.814,662.396C886.709,661.928 886.337,661.494 885.697,661.102L877.993,656.377L879.4,654.088L887.22,658.883C887.927,659.318 888.452,659.78 888.793,660.27C889.125,660.767 889.328,661.263 889.388,661.762C889.452,662.266 889.413,662.757 889.266,663.239C889.114,663.718 888.917,664.166 888.66,664.578M948.957,633.957C912.267,633.957 882.532,663.696 882.532,700.383C882.532,737.068 912.267,766.809 948.957,766.809C985.642,766.809 1015.38,737.068 1015.38,700.383C1015.38,663.696 985.642,633.957 948.957,633.957M948.957,636.15C984.371,636.15 1013.19,664.967 1013.19,700.383C1013.19,735.799 984.371,764.613 948.957,764.613C913.539,764.613 884.722,735.799 884.722,700.383C884.722,664.967 913.539,636.15 948.957,636.15M948.955,610.562C899.353,610.562 859.136,650.773 859.136,700.377C859.136,749.985 899.353,790.201 948.955,790.201C998.562,790.201 1038.78,749.985 1038.78,700.377C1038.78,650.773 998.562,610.562 948.955,610.562M948.955,612.752C997.274,612.752 1036.58,652.061 1036.58,700.377C1036.58,748.693 997.274,788.003 948.955,788.003C900.636,788.003 861.332,748.693 861.332,700.377C861.332,652.061 900.636,612.752 948.955,612.752" style="fill-rule:nonzero;"/>
                </g>
            </g>
        </g>
    </g>
</svg>
