<svg version="1.1" xmlns="http://www.w3.org/2000/svg" xmlns:xlink="http://www.w3.org/1999/xlink" x="0" y="0" width="200"
     height="45" viewBox="0, 0, 200, 45">
    <g>
        <g>
            <path d="M55.98,30.695 L55.98,27.104 C56.653,27.574 57.152,27.871 57.592,28.092 C58.027,28.308 58.47,28.4 58.908,28.4 C60.455,28.4 61.278,27.565 61.278,26.002 L61.278,13.767 L65.366,13.767 L65.366,26.178 C65.366,28.112 64.844,29.505 63.801,30.354 C62.759,31.204 61.472,31.628 59.942,31.628 C58.63,31.628 57.308,31.317 55.98,30.695 M67.827,22.519 C67.827,16.254 70.671,13.41 75.426,13.41 C80.685,13.41 83.151,16.404 83.151,22.519 C83.151,29.062 80.258,31.628 75.527,31.628 C70.52,31.628 67.827,28.76 67.827,22.519 M78.902,22.519 C78.902,18.398 77.795,16.699 75.425,16.699 C73.185,16.699 72.051,18.475 72.051,22.519 C72.051,26.564 73.313,28.339 75.58,28.339 C77.795,28.339 78.902,26.666 78.902,22.519 M85.621,13.76 L89.673,13.76 L89.673,20.851 L95.107,20.851 L95.107,13.76 L99.184,13.76 L99.184,31.279 L95.107,31.279 L95.107,24.318 L89.673,24.318 L89.673,31.279 L85.621,31.279 z M116.144,31.278 L110.733,13.76 L106.431,13.76 L100.863,31.278 L104.58,31.278 L105.559,27.888 L111.1,27.888 L112.093,31.278 z M110.183,24.761 L106.462,24.761 L108.308,18.363 z M148.088,13.76 L148.088,31.279 L144.745,31.279 L138.603,20.615 L138.603,31.279 L134.55,31.279 L134.55,13.76 L138.314,13.76 L144.037,24.187 L144.037,13.76 z M131.36,13.76 L131.36,31.279 L128.02,31.279 L121.876,20.615 L121.876,31.279 L117.823,31.279 L117.823,13.76 L121.587,13.76 L127.309,24.187 L127.309,13.76 z M151.283,13.76 L155.332,13.76 L155.332,31.279 L151.283,31.279 z M161.946,16.835 L157.347,16.835 L157.347,13.76 L170.701,13.76 L170.701,16.835 L166.023,16.835 L166.023,31.278 L161.946,31.278 z M195.84,24.307 C196.919,23.958 197.817,23.392 198.444,22.423 C199.074,21.452 199.35,20.439 199.35,19.302 C199.35,17.466 198.797,16.084 197.697,15.157 C196.593,14.23 195.039,13.76 193.029,13.76 L186.01,13.76 L186.01,31.278 L190.036,31.278 L190.036,24.836 L191.814,24.836 L195.135,31.279 L199.98,31.279 z M192.788,21.661 L190.036,21.661 L190.036,16.837 L192.971,16.837 C193.578,16.837 194.235,16.996 194.651,17.412 C195.036,17.795 195.229,18.455 195.229,19.19 C195.229,20.771 194.415,21.661 192.788,21.661 M172.667,31.279 L182.973,31.279 L182.973,28.2 L176.718,28.2 L176.718,24.058 L181.949,24.058 L181.949,20.953 L176.718,20.953 L176.718,16.837 L182.973,16.837 L182.973,13.76 L172.667,13.76 z M44.98,22.499 C44.98,34.914 34.915,44.979 22.5,44.979 C10.085,44.979 0.02,34.914 0.02,22.499 C0.02,10.084 10.085,0.019 22.5,0.019 C34.915,0.019 44.98,10.084 44.98,22.499"
                  fill="#EB003C"></path>
            <path d="M22.5,22.499 L4.327,15.428 L11.171,22.499 L4.327,29.571 z M22.5,22.499 L40.673,29.571 L33.829,22.499 L40.673,15.428 z M22.5,22.499 L15.429,40.673 L22.5,33.828 L29.571,40.673 z M22.5,22.499 L29.571,4.326 L22.5,11.17 L15.429,4.326 z"
                  fill="#FFFFFF"></path>
        </g>
    </g>
</svg>
