<?xml version="1.0" encoding="UTF-8" standalone="no"?>
<!DOCTYPE svg PUBLIC "-//W3C//DTD SVG 1.1//EN" "http://www.w3.org/Graphics/SVG/1.1/DTD/svg11.dtd">
<svg width="100%" height="100%" viewBox="0 0 71 71" version="1.1" xmlns="http://www.w3.org/2000/svg" xmlns:xlink="http://www.w3.org/1999/xlink" xml:space="preserve" xmlns:serif="http://www.serif.com/" style="fill-rule:evenodd;clip-rule:evenodd;">
    <g transform="matrix(1,0,0,1,35.437,0)">
        <path d="M0,70.875C19.572,70.875 35.438,55.009 35.438,35.437C35.438,15.866 19.572,0 0,0C-19.572,0 -35.437,15.866 -35.437,35.437C-35.437,55.009 -19.572,70.875 0,70.875" style="fill:rgb(228,0,58);fill-rule:nonzero;"/>
    </g>
    <g transform="matrix(1,0,0,1,35.437,11.3598)">
        <path d="M0,48.949C13.517,48.949 24.475,37.991 24.475,24.474C24.475,10.958 13.517,0 0,0C-13.517,0 -24.475,10.958 -24.475,24.474C-24.475,37.991 -13.517,48.949 0,48.949Z" style="fill:none;fill-rule:nonzero;stroke:white;stroke-width:2.5px;"/>
    </g>
    <g transform="matrix(1,0,0,1,29.1203,60.3085)">
        <path d="M0,-47.82C-1.305,-47.82 -2.362,-46.762 -2.362,-45.458L-2.362,-2.362C-2.362,-1.057 -1.305,0 0,0L12.876,0C14.18,0 15.238,-1.057 15.238,-2.362L15.238,-45.458C15.238,-46.762 14.18,-47.82 12.876,-47.82L0,-47.82Z" style="fill:white;fill-rule:nonzero;"/>
    </g>
    <g transform="matrix(1,0,0,1,11.8905,29.396)">
        <path d="M0,12.876C0,14.181 1.058,15.238 2.362,15.238L45.458,15.238C46.763,15.238 47.82,14.181 47.82,12.876L47.82,-0C47.82,-1.304 46.763,-2.362 45.458,-2.362L2.362,-2.362C1.058,-2.362 0,-1.304 0,-0L0,12.876Z" style="fill:white;fill-rule:nonzero;"/>
    </g>
    <g transform="matrix(1,0,0,1,35.437,19.8758)">
        <path d="M0,31.917C8.814,31.917 15.959,24.772 15.959,15.958C15.959,7.145 8.814,0 0,0C-8.814,0 -15.959,7.145 -15.959,15.958C-15.959,24.772 -8.814,31.917 0,31.917" style="fill:rgb(228,0,58);fill-rule:nonzero;"/>
    </g>
    <g transform="matrix(1,0,0,1,35.437,19.8758)">
        <path d="M0,31.917C8.814,31.917 15.959,24.772 15.959,15.958C15.959,7.145 8.814,0 0,0C-8.814,0 -15.959,7.145 -15.959,15.958C-15.959,24.772 -8.814,31.917 0,31.917Z" style="fill:none;fill-rule:nonzero;stroke:white;stroke-width:2.5px;"/>
    </g>
    <g transform="matrix(1,0,0,1,33.7664,60.4785)">
        <path d="M0,-49.289C0.923,-48.366 2.418,-48.366 3.341,-49.289C4.264,-50.212 4.264,-51.707 3.341,-52.63C2.418,-53.553 0.923,-53.553 0,-52.63C-0.923,-51.707 -0.923,-50.212 0,-49.289ZM0,3.342C0.923,4.264 2.418,4.264 3.341,3.342C4.264,2.419 4.264,0.923 3.341,0.001C2.418,-0.922 0.923,-0.922 0,0.001C-0.923,0.923 -0.923,2.419 0,3.342Z" style="fill:none;fill-rule:nonzero;stroke:white;stroke-width:2.5px;"/>
    </g>
    <g transform="matrix(1,0,0,1,10.5915,34.2849)">
        <path d="M0,3.341C0.923,2.418 0.923,0.923 0,-0C-0.923,-0.923 -2.418,-0.923 -3.341,-0C-4.264,0.923 -4.264,2.418 -3.341,3.341C-2.418,4.264 -0.923,4.264 0,3.341ZM53.032,3.341C53.955,2.418 53.955,0.923 53.032,-0C52.109,-0.923 50.614,-0.923 49.691,-0C48.768,0.923 48.768,2.418 49.691,3.341C50.614,4.264 52.109,4.264 53.032,3.341Z" style="fill:none;fill-rule:nonzero;stroke:white;stroke-width:2.5px;"/>
    </g>
</svg>
