<?xml version="1.0" encoding="UTF-8" standalone="no"?>
<!DOCTYPE svg PUBLIC "-//W3C//DTD SVG 1.1//EN" "http://www.w3.org/Graphics/SVG/1.1/DTD/svg11.dtd">
<svg width="100%" height="100%" viewBox="0 0 71 71" version="1.1" xmlns="http://www.w3.org/2000/svg" xmlns:xlink="http://www.w3.org/1999/xlink" xml:space="preserve" xmlns:serif="http://www.serif.com/" style="fill-rule:evenodd;clip-rule:evenodd;stroke-linecap:round;stroke-linejoin:round;">
    <g transform="matrix(1,0,0,1,35.436,0)">
        <path d="M0,70.872C19.571,70.872 35.436,55.007 35.436,35.436C35.436,15.866 19.571,0 0,0C-19.571,0 -35.436,15.866 -35.436,35.436C-35.436,55.007 -19.571,70.872 0,70.872" style="fill:rgb(239,188,58);fill-rule:nonzero;"/>
    </g>
    <g transform="matrix(1,0,0,1,34.3761,19.5394)">
        <path d="M0,29.47L18.69,29.47C18.69,29.47 28.414,29.202 28.146,14.734C27.878,0.267 18.69,-0.001 18.69,-0.001L-8.827,-0.001L0,29.47ZM0,29.202L0,36.436C0,36.436 -24.503,39.338 -24.503,14.734C-24.503,-9.868 0.76,-6.431 0.76,-6.431L0.76,-1.419M5.607,24.886L5.607,20.684M5.607,10.179L5.607,5.977" style="fill:none;fill-rule:nonzero;stroke:white;stroke-width:2.5px;"/>
    </g>
</svg>
