<?xml version="1.0" encoding="UTF-8" standalone="no"?>
<!DOCTYPE svg PUBLIC "-//W3C//DTD SVG 1.1//EN" "http://www.w3.org/Graphics/SVG/1.1/DTD/svg11.dtd">
<svg width="100%" height="100%" viewBox="0 0 71 71" version="1.1" xmlns="http://www.w3.org/2000/svg" xmlns:xlink="http://www.w3.org/1999/xlink" xml:space="preserve" xmlns:serif="http://www.serif.com/" style="fill-rule:evenodd;clip-rule:evenodd;">
    <g transform="matrix(1,0,0,1,35.436,0)">
        <path d="M0,70.872C19.571,70.872 35.436,55.007 35.436,35.436C35.436,15.866 19.571,0 0,0C-19.571,0 -35.436,15.866 -35.436,35.436C-35.436,55.007 -19.571,70.872 0,70.872" style="fill:rgb(178,178,177);fill-rule:nonzero;"/>
    </g>
    <g transform="matrix(0,1,1,0,43.9909,18.1774)">
        <path d="M-8.386,-8.386L8.386,-8.386" style="fill:none;fill-rule:nonzero;stroke:white;stroke-width:4.17px;"/>
    </g>
    <g transform="matrix(0.707107,0.707107,0.707107,-0.707107,37.3365,22.1969)">
        <path d="M-0.872,-2.105L5.082,-2.105" style="fill:none;fill-rule:nonzero;stroke:white;stroke-width:4.17px;"/>
    </g>
    <g transform="matrix(-0.707107,0.707107,0.707107,0.707107,34.1106,28.1507)">
        <path d="M-5.082,-2.105L0.872,-2.105" style="fill:none;fill-rule:nonzero;stroke:white;stroke-width:4.17px;"/>
    </g>
    <g transform="matrix(1,0,0,1,26.2227,56.5599)">
        <path d="M0,-39.141C8.028,-39.21 6.52,-15.564 5.337,-12.504C4.154,-9.444 -16.185,0.069 -16.185,0.069C-16.185,0.069 -19.14,-39.21 0,-39.141Z" style="fill:rgb(178,178,177);fill-rule:nonzero;stroke:white;stroke-width:2.5px;stroke-linecap:round;stroke-linejoin:round;"/>
    </g>
    <g transform="matrix(1,0,0,1,44.9752,56.5599)">
        <path d="M0,-39.141C-8.028,-39.21 -6.52,-15.564 -5.337,-12.504C-4.154,-9.444 16.185,0.069 16.185,0.069C16.185,0.069 19.14,-39.21 0,-39.141Z" style="fill:rgb(178,178,177);fill-rule:nonzero;stroke:white;stroke-width:2.5px;stroke-linecap:round;stroke-linejoin:round;"/>
    </g>
</svg>
