<?xml version="1.0" encoding="UTF-8" standalone="no"?>
<!DOCTYPE svg PUBLIC "-//W3C//DTD SVG 1.1//EN" "http://www.w3.org/Graphics/SVG/1.1/DTD/svg11.dtd">
<svg width="100%" height="100%" viewBox="0 0 71 71" version="1.1" xmlns="http://www.w3.org/2000/svg" xmlns:xlink="http://www.w3.org/1999/xlink" xml:space="preserve" xmlns:serif="http://www.serif.com/" style="fill-rule:evenodd;clip-rule:evenodd;">
    <g transform="matrix(1,0,0,1,35.436,0)">
        <path d="M0,70.872C19.571,70.872 35.436,55.007 35.436,35.436C35.436,15.866 19.571,0 0,0C-19.571,0 -35.436,15.866 -35.436,35.436C-35.436,55.007 -19.571,70.872 0,70.872" style="fill:rgb(199,151,196);fill-rule:nonzero;"/>
    </g>
    <g transform="matrix(1,0,0,1,36.141,16.7282)">
        <path d="M0,15.551L0,1.108L0.087,0.897C0.135,0.782 0.589,-0.242 1.841,-0.729C2.914,-1.147 4.196,-1.041 5.657,-0.416C6.532,-0.439 8.069,-0.211 8.869,0.824C9.225,1.283 9.51,1.979 9.283,2.951C9.984,3.101 10.682,3.418 11.093,4.113C11.396,4.627 11.47,5.224 11.315,5.895C11.791,6.235 12.274,6.746 12.38,7.492C12.471,8.124 12.272,8.745 11.79,9.346C11.793,9.366 11.796,9.387 11.798,9.406C11.881,10.172 11.579,11.143 9.929,11.828C10.06,12.183 10.137,12.507 10.15,12.709C10.199,13.43 10,15.149 7.11,15.541L1.147,15.551L0,15.551ZM-0.188,15.551L-0.188,1.108L-0.275,0.897C-0.323,0.782 -0.777,-0.242 -2.029,-0.729C-3.102,-1.147 -4.384,-1.041 -5.845,-0.416C-6.72,-0.439 -8.257,-0.211 -9.057,0.824C-9.413,1.283 -9.698,1.979 -9.471,2.951C-10.173,3.101 -10.87,3.418 -11.281,4.113C-11.584,4.627 -11.658,5.224 -11.503,5.895C-11.979,6.235 -12.462,6.746 -12.568,7.492C-12.663,8.156 -12.44,8.808 -11.903,9.437C-11.926,10.133 -11.624,11.161 -9.934,11.892C-10.102,12.264 -10.209,12.624 -10.227,12.894C-10.272,13.564 -10.077,15.164 -7.298,15.541L-1.335,15.551L-0.188,15.551Z" style="fill:none;fill-rule:nonzero;stroke:white;stroke-width:2.3px;"/>
    </g>
    <g transform="matrix(-0.925572,0.378572,0.378572,0.925572,41.3392,22.0784)">
        <path d="M-4.883,-0.576C-4.883,-0.576 -1.026,-2.602 0.27,-0.576" style="fill:rgb(227,6,19);fill-rule:nonzero;"/>
    </g>
    <g transform="matrix(1,0,0,1,45.6409,28.6207)">
        <path d="M0,-8.924C0,-8.924 -4.337,-9.339 -4.77,-6.973M-8.303,0C-8.303,0 -3.966,0.415 -3.532,-1.951M-18.9,-8.924C-18.9,-8.924 -14.564,-9.339 -14.13,-6.973M-9.688,-3.431C-9.688,-3.431 -14.024,-3.846 -14.458,-1.48" style="fill:none;fill-rule:nonzero;stroke:white;stroke-width:2.3px;stroke-linecap:round;stroke-linejoin:round;"/>
    </g>
    <g transform="matrix(1,0,0,1,23.2644,36.4165)">
        <path d="M0,-3.448L0,13.032C0,13.032 0.236,21.606 12.993,21.37C25.75,21.133 25.986,13.032 25.986,13.032L26.036,-3.191M0.005,-3.579L-6.142,-3.448C-6.142,-3.448 -8.701,-25.054 12.993,-25.054C34.687,-25.054 31.656,-3.369 31.656,-3.369L26.426,-3.343M26.297,-3.177C26.297,-3.177 32.532,-2.018 32.532,2.943C32.532,7.904 26.297,7.904 26.297,7.904M-0.423,-3.177C-0.423,-3.177 -6.659,-2.018 -6.659,2.943C-6.659,7.904 -0.423,7.904 -0.423,7.904" style="fill:none;fill-rule:nonzero;stroke:white;stroke-width:2.5px;stroke-linecap:round;stroke-linejoin:round;"/>
    </g>
</svg>
