<?xml version="1.0" encoding="UTF-8" standalone="no"?>
<!DOCTYPE svg PUBLIC "-//W3C//DTD SVG 1.1//EN" "http://www.w3.org/Graphics/SVG/1.1/DTD/svg11.dtd">
<svg width="100%" height="100%" viewBox="0 0 71 71" version="1.1" xmlns="http://www.w3.org/2000/svg" xmlns:xlink="http://www.w3.org/1999/xlink" xml:space="preserve" xmlns:serif="http://www.serif.com/" style="fill-rule:evenodd;clip-rule:evenodd;stroke-linejoin:round;">
    <g transform="matrix(1,0,0,1,35.436,0)">
        <path d="M0,70.872C19.571,70.872 35.436,55.007 35.436,35.436C35.436,15.866 19.571,0 0,0C-19.571,0 -35.436,15.866 -35.436,35.436C-35.436,55.007 -19.571,70.872 0,70.872" style="fill:rgb(142,195,111);fill-rule:nonzero;"/>
    </g>
    <g transform="matrix(1,0,0,1,16.8054,56.6681)">
        <path d="M0,-43.487C0,-43.487 2.165,-33.093 2.165,-33.211C-2.796,-21.246 -0.012,-5.434 -0.012,-5.434C-0.012,-5.434 4.79,0 19.193,0C33.597,0 38.18,-5.198 38.18,-5.198C38.18,-5.198 41.145,-19.745 36.302,-32.384C36.42,-32.384 39.255,-43.015 39.255,-43.015" style="fill:none;fill-rule:nonzero;stroke:white;stroke-width:2.5px;"/>
    </g>
    <g transform="matrix(0.707107,0.707107,0.707107,-0.707107,33.5333,33.8519)">
        <path d="M1.67,-0.692C2.975,-0.692 4.033,0.365 4.033,1.67C4.033,2.976 2.975,4.033 1.67,4.033C0.366,4.032 -0.692,2.975 -0.692,1.67C-0.692,0.365 0.365,-0.692 1.67,-0.692" style="fill:white;fill-rule:nonzero;"/>
    </g>
    <g transform="matrix(1,0,0,1,24.3454,64.3917)">
        <path d="M0,-13.852C0,-13.852 9.558,0 22.561,-13.852" style="fill:none;fill-rule:nonzero;stroke:white;stroke-width:2.5px;stroke-linecap:round;"/>
    </g>
</svg>
