<?xml version="1.0" encoding="UTF-8" standalone="no"?>
<!DOCTYPE svg PUBLIC "-//W3C//DTD SVG 1.1//EN" "http://www.w3.org/Graphics/SVG/1.1/DTD/svg11.dtd">
<svg width="100%" height="100%" viewBox="0 0 71 71" version="1.1" xmlns="http://www.w3.org/2000/svg" xmlns:xlink="http://www.w3.org/1999/xlink" xml:space="preserve" xmlns:serif="http://www.serif.com/" style="fill-rule:evenodd;clip-rule:evenodd;">
    <g transform="matrix(1,0,0,1,35.436,0)">
        <path d="M0,70.872C19.571,70.872 35.436,55.007 35.436,35.436C35.436,15.866 19.571,0 0,0C-19.571,0 -35.436,15.866 -35.436,35.436C-35.436,55.007 -19.571,70.872 0,70.872" style="fill:#010646;fill-rule:nonzero;"/>
    </g>
    <g transform="matrix(1,0,0,1,35.5543,44.8567)">
        <path d="M0,-17.937C3.418,-17.937 6.189,-20.708 6.189,-24.126C6.189,-27.543 3.418,-30.314 0,-30.314C-3.418,-30.314 -6.189,-27.543 -6.189,-24.126C-6.189,-20.708 -3.418,-17.937 0,-17.937ZM0,-18.799L0,12.377M-4.447,-11.239L4.21,-11.239M-18.621,-5.526C-18.621,-5.526 -14.925,11.473 0,11.473C14.925,11.473 17.996,-5.526 17.996,-5.526" style="fill:none;fill-rule:nonzero;stroke:white;stroke-width:2.5px;"/>
    </g>
    <g transform="matrix(1,0,0,1,14.4076,34.8672)">
        <path d="M0,10.631L0,0L7.6,7.57L0,10.631Z" style="fill:white;fill-rule:nonzero;"/>
    </g>
    <g transform="matrix(1,0,0,1,56.4643,34.8672)">
        <path d="M0,10.631L0,0L-7.6,7.57L0,10.631Z" style="fill:white;fill-rule:nonzero;"/>
    </g>
</svg>
