<?xml version="1.0" encoding="UTF-8" standalone="no"?>
<!DOCTYPE svg PUBLIC "-//W3C//DTD SVG 1.1//EN" "http://www.w3.org/Graphics/SVG/1.1/DTD/svg11.dtd">
<svg width="100%" height="100%" viewBox="0 0 412 120" version="1.1" xmlns="http://www.w3.org/2000/svg" xmlns:xlink="http://www.w3.org/1999/xlink" xml:space="preserve" xmlns:serif="http://www.serif.com/" style="fill-rule:evenodd;clip-rule:evenodd;stroke-linejoin:round;stroke-miterlimit:2;">
    <g transform="matrix(1,0,0,1,-46,-194)">
        <g>
            <g transform="matrix(0.871695,0,0,0.871695,52.7698,32.4534)">
                <g transform="matrix(1,0,0,1,91.9713,0)">
                    <g transform="matrix(0.68152,0,0,0.722557,219.083,295.422)">
                        <g transform="matrix(202.037,0,0,202.037,0,0)">
                            <path d="M0.304,0.015C0.233,0.015 0.176,-0.002 0.132,-0.035C0.088,-0.068 0.066,-0.121 0.066,-0.193L0.066,-0.506L0.215,-0.506L0.215,-0.205C0.215,-0.173 0.222,-0.149 0.237,-0.134C0.251,-0.118 0.274,-0.11 0.305,-0.11C0.336,-0.11 0.359,-0.118 0.374,-0.134C0.388,-0.149 0.395,-0.173 0.395,-0.205L0.395,-0.506L0.535,-0.506L0.535,-0.193C0.535,-0.121 0.514,-0.068 0.473,-0.035C0.432,-0.002 0.375,0.015 0.304,0.015Z" style="fill:rgb(0,5,72);fill-rule:nonzero;"/>
                        </g>
                    </g>
                    <g transform="matrix(0.68152,0,0,0.722557,295.223,295.422)">
                        <g transform="matrix(202.037,0,0,202.037,0,0)">
                            <path d="M0.066,-0L0.066,-0.706L0.216,-0.706L0.216,-0.483C0.237,-0.494 0.26,-0.503 0.285,-0.51C0.31,-0.517 0.334,-0.52 0.359,-0.52C0.396,-0.52 0.428,-0.514 0.456,-0.503C0.484,-0.491 0.506,-0.471 0.522,-0.444C0.537,-0.417 0.545,-0.379 0.545,-0.332L0.545,-0L0.396,-0L0.396,-0.301C0.396,-0.365 0.364,-0.397 0.3,-0.397C0.284,-0.397 0.268,-0.395 0.253,-0.39C0.237,-0.385 0.225,-0.38 0.216,-0.373L0.214,-0L0.066,-0Z" style="fill:rgb(0,5,72);fill-rule:nonzero;"/>
                        </g>
                    </g>
                    <path d="M175.514,186.609L154.654,186.61L131.907,247.195L132.001,262.839L182.907,262.821L182.914,244.383L153.684,244.563L175.514,186.609Z" style="fill:rgb(0,5,72);"/>
                    <g transform="matrix(0.68152,0,0,0.722557,160.9,319.582)">
                        <g transform="matrix(202.037,0,0,202.037,0,0)">
                            <path d="M0.192,0.013C0.163,0.013 0.135,0.01 0.109,0.003C0.082,-0.005 0.058,-0.013 0.035,-0.024L0.035,-0.172C0.057,-0.157 0.078,-0.144 0.097,-0.133C0.116,-0.122 0.134,-0.117 0.153,-0.117C0.182,-0.117 0.204,-0.124 0.221,-0.139C0.237,-0.154 0.245,-0.177 0.245,-0.21L0.245,-0.667L0.407,-0.667L0.407,-0.203C0.407,-0.161 0.401,-0.126 0.389,-0.099C0.376,-0.071 0.36,-0.049 0.339,-0.033C0.318,-0.016 0.294,-0.005 0.269,0.003C0.244,0.01 0.218,0.013 0.192,0.013Z" style="fill:rgb(0,5,72);fill-rule:nonzero;"/>
                        </g>
                    </g>
                </g>
                <g transform="matrix(0.651044,0,0,0.690246,-10.5945,295.469)">
                    <g transform="matrix(202.037,0,0,202.037,0,0)">
                        <path d="M0.261,0.015C0.22,0.015 0.183,0.01 0.15,-0.001C0.116,-0.011 0.089,-0.028 0.069,-0.054C0.049,-0.079 0.039,-0.113 0.039,-0.158C0.039,-0.205 0.054,-0.243 0.084,-0.271C0.113,-0.299 0.159,-0.313 0.22,-0.313C0.246,-0.313 0.271,-0.31 0.296,-0.303C0.321,-0.296 0.341,-0.288 0.358,-0.279L0.358,-0.311C0.358,-0.342 0.348,-0.364 0.329,-0.378C0.309,-0.391 0.281,-0.398 0.246,-0.398C0.217,-0.398 0.187,-0.393 0.157,-0.383C0.126,-0.372 0.102,-0.36 0.085,-0.345L0.085,-0.477C0.102,-0.488 0.128,-0.499 0.165,-0.508C0.202,-0.517 0.242,-0.521 0.287,-0.521C0.306,-0.521 0.329,-0.519 0.354,-0.515C0.379,-0.51 0.403,-0.502 0.426,-0.49C0.449,-0.477 0.468,-0.459 0.484,-0.436C0.499,-0.413 0.506,-0.382 0.506,-0.344L0.505,-0.105C0.504,-0.062 0.483,-0.031 0.44,-0.013C0.397,0.006 0.338,0.015 0.261,0.015ZM0.187,-0.155C0.187,-0.135 0.195,-0.119 0.211,-0.108C0.227,-0.096 0.245,-0.09 0.266,-0.09C0.3,-0.09 0.324,-0.092 0.338,-0.097C0.351,-0.102 0.358,-0.111 0.358,-0.125L0.358,-0.203C0.335,-0.211 0.31,-0.215 0.281,-0.215C0.248,-0.215 0.225,-0.21 0.21,-0.201C0.195,-0.191 0.187,-0.176 0.187,-0.155Z" style="fill:rgb(0,5,72);fill-rule:nonzero;"/>
                    </g>
                </g>
            </g>
            <g transform="matrix(0.567511,0,0,0.601684,105.875,290.012)">
                <g transform="matrix(202.037,0,0,202.037,0,0)">
                    <path d="M0.339,0.015C0.326,0.015 0.308,0.014 0.283,0.011C0.258,0.008 0.235,0 0.212,-0.012L0.212,0.181L0.066,0.181L0.066,-0.399C0.066,-0.428 0.077,-0.451 0.099,-0.469C0.121,-0.487 0.15,-0.501 0.187,-0.51C0.223,-0.519 0.263,-0.523 0.307,-0.523C0.358,-0.523 0.402,-0.515 0.441,-0.498C0.479,-0.481 0.509,-0.452 0.531,-0.412C0.552,-0.372 0.563,-0.317 0.563,-0.248C0.563,-0.196 0.554,-0.15 0.537,-0.111C0.519,-0.071 0.493,-0.04 0.46,-0.018C0.427,0.004 0.386,0.015 0.339,0.015ZM0.295,-0.105C0.334,-0.105 0.364,-0.116 0.384,-0.138C0.404,-0.16 0.414,-0.198 0.414,-0.253C0.414,-0.298 0.406,-0.334 0.39,-0.36C0.374,-0.385 0.344,-0.398 0.301,-0.398C0.269,-0.398 0.246,-0.395 0.233,-0.389C0.219,-0.382 0.212,-0.374 0.212,-0.364L0.212,-0.126C0.225,-0.119 0.239,-0.113 0.254,-0.11C0.269,-0.107 0.282,-0.105 0.295,-0.105Z" style="fill:rgb(0,5,72);fill-rule:nonzero;"/>
                </g>
            </g>
            <g transform="matrix(0.567511,0,0,0.601684,173.399,290.012)">
                <g transform="matrix(202.037,0,0,202.037,0,0)">
                    <path d="M0.339,0.015C0.326,0.015 0.308,0.014 0.283,0.011C0.258,0.008 0.235,0 0.212,-0.012L0.212,0.181L0.066,0.181L0.066,-0.399C0.066,-0.428 0.077,-0.451 0.099,-0.469C0.121,-0.487 0.15,-0.501 0.187,-0.51C0.223,-0.519 0.263,-0.523 0.307,-0.523C0.358,-0.523 0.402,-0.515 0.441,-0.498C0.479,-0.481 0.509,-0.452 0.531,-0.412C0.552,-0.372 0.563,-0.317 0.563,-0.248C0.563,-0.196 0.554,-0.15 0.537,-0.111C0.519,-0.071 0.493,-0.04 0.46,-0.018C0.427,0.004 0.386,0.015 0.339,0.015ZM0.295,-0.105C0.334,-0.105 0.364,-0.116 0.384,-0.138C0.404,-0.16 0.414,-0.198 0.414,-0.253C0.414,-0.298 0.406,-0.334 0.39,-0.36C0.374,-0.385 0.344,-0.398 0.301,-0.398C0.269,-0.398 0.246,-0.395 0.233,-0.389C0.219,-0.382 0.212,-0.374 0.212,-0.364L0.212,-0.126C0.225,-0.119 0.239,-0.113 0.254,-0.11C0.269,-0.107 0.282,-0.105 0.295,-0.105Z" style="fill:rgb(0,5,72);fill-rule:nonzero;"/>
                </g>
            </g>
        </g>
    </g>
</svg>
