<?xml version="1.0" encoding="UTF-8" standalone="no"?>
<!DOCTYPE svg PUBLIC "-//W3C//DTD SVG 1.1//EN" "http://www.w3.org/Graphics/SVG/1.1/DTD/svg11.dtd">
<svg width="100%" height="100%" viewBox="0 0 412 120" version="1.1" xmlns="http://www.w3.org/2000/svg" xmlns:xlink="http://www.w3.org/1999/xlink" xml:space="preserve" xmlns:serif="http://www.serif.com/" style="fill-rule:evenodd;clip-rule:evenodd;stroke-linejoin:round;stroke-miterlimit:2;">
    <g transform="matrix(1,0,0,1,-46,-194)">
        <g>
            <g transform="matrix(0.871695,0,0,0.871695,52.7698,32.4534)">
                <g transform="matrix(1,0,0,1,91.9713,0)">
                    <g transform="matrix(0.68152,0,0,0.722557,160.168,94.8718)">
                        <g transform="matrix(202.037,0,0,202.037,207.871,277.556)">
                        </g>
                        <text x="86.447px" y="277.556px" style="font-family:'MavenJohanniter-Bold', 'Maven Johanniter', sans-serif;font-weight:700;font-size:202.037px;fill:rgb(0,5,72);">u</text>
                    </g>
                    <g transform="matrix(0.68152,0,0,0.722557,236.308,94.8718)">
                        <g transform="matrix(202.037,0,0,202.037,209.892,277.556)">
                        </g>
                        <text x="86.447px" y="277.556px" style="font-family:'MavenJohanniter-Bold', 'Maven Johanniter', sans-serif;font-weight:700;font-size:202.037px;fill:rgb(0,5,72);">h</text>
                    </g>
                    <path d="M175.514,186.609L154.654,186.61L131.907,247.195L132.001,262.839L182.907,262.821L182.914,244.383L153.684,244.563L175.514,186.609Z" style="fill:rgb(0,5,72);"/>
                    <g transform="matrix(0.68152,0,0,0.722557,101.985,119.032)">
                        <g transform="matrix(202.037,0,0,202.037,183.021,277.556)">
                        </g>
                        <text x="86.447px" y="277.556px" style="font-family:'MavenJohanniter-Bold', 'Maven Johanniter', sans-serif;font-weight:700;font-size:202.037px;fill:rgb(0,5,72);">J</text>
                    </g>
                </g>
                <g transform="matrix(0.651044,0,0,0.690246,-66.8753,103.887)">
                    <g transform="matrix(202.037,0,0,202.037,202.012,277.556)">
                    </g>
                    <text x="86.447px" y="277.556px" style="font-family:'MavenJohanniter-Bold', 'Maven Johanniter', sans-serif;font-weight:700;font-size:202.037px;fill:rgb(0,5,72);">a</text>
                </g>
            </g>
            <g transform="matrix(0.567511,0,0,0.601684,56.8154,123.011)">
                <g transform="matrix(202.037,0,0,202.037,207.871,277.556)">
                </g>
                <text x="86.447px" y="277.556px" style="font-family:'MavenJohanniter-Bold', 'Maven Johanniter', sans-serif;font-weight:700;font-size:202.037px;fill:rgb(0,5,72);">p</text>
            </g>
            <g transform="matrix(0.567511,0,0,0.601684,124.339,123.011)">
                <g transform="matrix(202.037,0,0,202.037,207.871,277.556)">
                </g>
                <text x="86.447px" y="277.556px" style="font-family:'MavenJohanniter-Bold', 'Maven Johanniter', sans-serif;font-weight:700;font-size:202.037px;fill:rgb(0,5,72);">p</text>
            </g>
        </g>
    </g>
</svg>
